<svg width="24" height="24" viewBox="0 0 24 24" fill="none" xmlns="http://www.w3.org/2000/svg">
<path d="M0 8C0 3.58173 3.58172 0 8 0H16C20.4183 0 24 3.58172 24 8V16C24 20.4183 20.4183 24 16 24H8C3.58173 24 0 20.4183 0 16V8Z" fill="#F35B15"/>
<path d="M19.2203 6.37717C19.5643 6.68293 19.5953 7.20966 19.2895 7.55364L10.4006 17.5536C10.2425 17.7316 10.0158 17.8333 9.77778 17.8333C9.53975 17.8333 9.31308 17.7316 9.15494 17.5536L4.7105 12.5536C4.40473 12.2097 4.43572 11.6829 4.7797 11.3772C5.12369 11.0714 5.65042 11.1024 5.95618 11.4464L9.77778 15.7457L18.0438 6.44637C18.3496 6.10239 18.8763 6.0714 19.2203 6.37717Z" fill="white"/>
</svg>
