<svg width="17" height="17" viewBox="0 0 17 17" fill="none" xmlns="http://www.w3.org/2000/svg">
<path d="M3.7547 2.27847H14.0705C14.8437 2.27847 15.4705 2.90527 15.4705 3.67847V8.07847H2.3547V3.67847C2.3547 2.90527 2.9815 2.27847 3.7547 2.27847Z" fill="white" stroke="#F35B15" stroke-width="1.2"/>
<mask id="path-2-inside-1_62_57" fill="white">
<rect x="3.4126" y="4.67847" width="5.3" height="4" rx="1"/>
</mask>
<rect x="3.4126" y="4.67847" width="5.3" height="4" rx="1" fill="#F35B15" stroke="#F35B15" stroke-width="2.4" mask="url(#path-2-inside-1_62_57)"/>
<mask id="path-3-inside-2_62_57" fill="white">
<rect x="9.21259" y="4.67847" width="5.3" height="4" rx="1"/>
</mask>
<rect x="9.21259" y="4.67847" width="5.3" height="4" rx="1" fill="#F35B15" stroke="#F35B15" stroke-width="2.4" mask="url(#path-3-inside-2_62_57)"/>
<path d="M16.3126 8.82721V11.0785H1.5126V8.82721C1.5126 8.32151 1.77885 7.97437 2.13947 7.88451C3.3075 7.59348 5.47429 7.27847 8.9126 7.27847C12.3509 7.27847 14.5177 7.59348 15.6857 7.88451C16.0463 7.97437 16.3126 8.32151 16.3126 8.82721Z" fill="white" stroke="#F35B15" stroke-width="1.2"/>
<rect x="1.5126" y="11.2785" width="14.8" height="1.8" fill="white" stroke="#F35B15" stroke-width="1.2"/>
<path d="M1.5126 13.5285H2.53527L2.30149 14.0837C2.23903 14.232 2.09377 14.3285 1.93283 14.3285H1.9126C1.69168 14.3285 1.5126 14.1494 1.5126 13.9285V13.5285Z" fill="#F35B15" stroke="#F35B15" stroke-width="1.2"/>
<path d="M16.3126 13.5285H15.2899L15.5237 14.0837C15.5862 14.232 15.7314 14.3285 15.8924 14.3285H15.9126C16.1335 14.3285 16.3126 14.1494 16.3126 13.9285V13.5285Z" fill="#F35B15" stroke="#F35B15" stroke-width="1.2"/>
</svg>
