<svg width="16" height="17" viewBox="0 0 16 17" fill="none" xmlns="http://www.w3.org/2000/svg">
<path d="M14.6467 12.72C14.6467 12.96 14.5933 13.2067 14.48 13.4467C14.3667 13.6867 14.22 13.9133 14.0267 14.1267C13.7 14.4867 13.34 14.7467 12.9333 14.9133C12.5333 15.08 12.1 15.1667 11.6333 15.1667C10.9533 15.1667 10.2267 15.0067 9.46 14.68C8.69333 14.3533 7.92667 13.9133 7.16667 13.36C6.4 12.8 5.67333 12.18 4.98 11.4933C4.29333 10.8 3.67333 10.0733 3.12 9.31333C2.57333 8.55333 2.13333 7.79333 1.81333 7.04C1.49333 6.28 1.33333 5.55333 1.33333 4.86C1.33333 4.40667 1.41333 3.97333 1.57333 3.57333C1.73333 3.16667 1.98667 2.79333 2.34 2.46C2.76667 2.04 3.23333 1.83333 3.72667 1.83333C3.91333 1.83333 4.1 1.87333 4.26667 1.95333C4.44 2.03333 4.59333 2.15333 4.71333 2.32667L6.26 4.50667C6.38 4.67333 6.46667 4.82667 6.52667 4.97333C6.58667 5.11333 6.62 5.25333 6.62 5.38C6.62 5.54 6.57333 5.7 6.48 5.85333C6.39333 6.00667 6.26667 6.16667 6.10667 6.32667L5.6 6.85333C5.52667 6.92667 5.49333 7.01333 5.49333 7.12C5.49333 7.17333 5.5 7.22 5.51333 7.27333C5.53333 7.32667 5.55333 7.36667 5.56667 7.40667C5.68667 7.62667 5.89333 7.91333 6.18667 8.26C6.48667 8.60667 6.80667 8.96 7.15333 9.31333C7.51333 9.66667 7.86 9.99333 8.21333 10.2933C8.56 10.5867 8.84667 10.7867 9.07333 10.9067C9.10667 10.92 9.14667 10.94 9.19333 10.96C9.24667 10.98 9.3 10.9867 9.36 10.9867C9.47333 10.9867 9.56 10.9467 9.63333 10.8733L10.14 10.3733C10.3067 10.2067 10.4667 10.08 10.62 10C10.7733 9.90667 10.9267 9.86 11.0933 9.86C11.22 9.86 11.3533 9.88667 11.5 9.94667C11.6467 10.0067 11.8 10.0933 11.9667 10.2067L14.1733 11.7733C14.3467 11.8933 14.4667 12.0333 14.54 12.2C14.6067 12.3667 14.6467 12.5333 14.6467 12.72Z" stroke="#F35B15" stroke-miterlimit="10"/>
</svg>
